<?xml version="1.0" standalone="no"?>
<!DOCTYPE svg PUBLIC "-//W3C//DTD SVG 20010904//EN"
 "http://www.w3.org/TR/2001/REC-SVG-20010904/DTD/svg10.dtd">
<svg version="1.0" xmlns="http://www.w3.org/2000/svg"
 width="512.000000pt" height="512.000000pt" viewBox="0 0 512.000000 512.000000"
 preserveAspectRatio="xMidYMid meet">

<g transform="translate(0.000000,512.000000) scale(0.100000,-0.100000)"
fill="#000000" stroke="none">
<path d="M1451 4420 c-27 -6 -109 -83 -388 -362 -306 -306 -355 -360 -363
-394 -20 -87 -18 -89 353 -462 188 -189 354 -350 369 -358 61 -32 159 -8 200
48 23 33 34 102 24 145 -5 18 -77 98 -202 223 -107 108 -194 199 -194 203 0 4
469 6 1043 5 1035 -4 1043 -4 1119 -25 355 -100 600 -354 675 -698 20 -91 20
-279 0 -370 -76 -351 -340 -616 -697 -703 -56 -13 -187 -16 -905 -21 l-840 -6
-31 -22 c-64 -46 -84 -149 -41 -214 12 -19 42 -44 67 -57 l45 -23 835 4 c802
3 839 4 925 24 503 116 866 486 962 983 22 113 22 327 0 440 -86 444 -400 804
-822 944 -189 62 -132 59 -1284 63 l-1054 4 191 192 c105 106 195 205 201 220
48 125 -59 248 -188 217z"/>
</g>
</svg>
